# xmcd
#
# Track frame offsets:
#	150
#	16865
#	37902
#	57470
#	76577
#	96142
#	116242
#	138855
#
# Disc length: 2205 seconds
#
# Revision: 4
# Processed by: cddbd v1.5.2PL0 Copyright (c) Steve Scherf et al.
# Submitted via: EasyCDDAExtractor 15.3.0.1
#
DISCID=59089b08
DTITLE=Ashley - Yo Soy La Reina
DYEAR=1997
DGENRE=Latin
TTITLE0=Mala
TTITLE1=La Chica Del Swing
TTITLE2=El Nene Sexy
TTITLE3=Que Pena De Este Amor
TTITLE4=Yo Soy La Reina
TTITLE5=Todita Tuya
TTITLE6=Vete De Aqui
TTITLE7=Swing Mix
EXTD=
EXTT0=
EXTT1=
EXTT2=
EXTT3=
EXTT4=
EXTT5=
EXTT6=
EXTT7=
PLAYORDER=
